<svg xmlns="http://www.w3.org/2000/svg" viewBox="0 0 800 500" width="800" height="500" role="img" aria-label="CDE Field — on-site task progress app for electricians (sample data)" font-family="Inter,'Segoe UI',Arial,sans-serif">
  <rect width="800" height="500" fill="#0d0d0d"/>
  <g stroke="#ffffff" stroke-opacity="0.04"><path d="M0 100H800M0 200H800M0 300H800M0 400H800"/><path d="M100 0V500M200 0V500M300 0V500M400 0V500M500 0V500M600 0V500M700 0V500"/></g>

  <!-- left copy -->
  <text x="60" y="92" font-size="12" letter-spacing="3" font-weight="600" fill="#6b6b68">FIELD SERVICE APP · PWA</text>
  <text x="58" y="150" font-size="54" fill="#f2f2f0" font-family="'Playfair Display',Georgia,serif">CDE Field</text>
  <text x="60" y="190" font-size="16" fill="#a3a3a0">On-site progress, straight</text>
  <text x="60" y="212" font-size="16" fill="#a3a3a0">to the office dashboard.</text>
  <g transform="translate(60,262)" font-size="13" fill="#a3a3a0">
    <rect width="150" height="40" rx="3" fill="none" stroke="#ffffff" stroke-opacity="0.22"/>
    <text x="16" y="25">I'm on site</text>
    <rect x="162" width="150" height="40" rx="3" fill="none" stroke="#ffffff" stroke-opacity="0.22"/>
    <text x="178" y="25">I'm managing</text>
  </g>
  <text x="60" y="440" font-size="12" fill="#6b6b68">Illustration · sample data</text>

  <!-- phone -->
  <g transform="translate(470,40)">
    <rect width="250" height="440" rx="30" fill="#161616" stroke="#ffffff" stroke-opacity="0.18"/>
    <rect x="95" y="14" width="60" height="6" rx="3" fill="#2a2a2a"/>
    <text x="22" y="62" font-size="11" letter-spacing="2" fill="#6b6b68">TODAY · SAMPLE CREW</text>
    <text x="22" y="90" font-size="22" fill="#f2f2f0" font-family="'Playfair Display',Georgia,serif">Your jobs</text>

    <g transform="translate(16,110)">
      <rect width="218" height="92" rx="4" fill="#1f1f1f"/>
      <text x="14" y="26" font-size="13" font-weight="600" fill="#f2f2f0">Job 1024 · Sample House</text>
      <text x="14" y="46" font-size="11" fill="#85857f">Rough-in wiring</text>
      <rect x="14" y="62" width="190" height="6" rx="3" fill="#333"/>
      <rect x="14" y="62" width="143" height="6" rx="3" fill="#f2f2f0"/>
      <text x="204" y="84" text-anchor="end" font-size="11" fill="#a3a3a0">75%</text>
    </g>
    <g transform="translate(16,214)">
      <rect width="218" height="92" rx="4" fill="#1f1f1f"/>
      <text x="14" y="26" font-size="13" font-weight="600" fill="#f2f2f0">Job 1031 · Demo Office</text>
      <text x="14" y="46" font-size="11" fill="#85857f">Switchboard install</text>
      <rect x="14" y="62" width="190" height="6" rx="3" fill="#333"/>
      <rect x="14" y="62" width="57" height="6" rx="3" fill="#f2f2f0"/>
      <text x="204" y="84" text-anchor="end" font-size="11" fill="#a3a3a0">30%</text>
    </g>
    <g transform="translate(16,318)">
      <rect width="218" height="92" rx="4" fill="#1f1f1f"/>
      <text x="14" y="26" font-size="13" font-weight="600" fill="#f2f2f0">Job 1047 · Example Unit</text>
      <text x="14" y="46" font-size="11" fill="#85857f">Fit-off &amp; testing</text>
      <rect x="14" y="62" width="190" height="6" rx="3" fill="#333"/>
      <rect x="14" y="62" width="190" height="6" rx="3" fill="#f2f2f0"/>
      <text x="204" y="84" text-anchor="end" font-size="11" fill="#a3a3a0">Done</text>
    </g>
  </g>
</svg>
